<svg xmlns="http://www.w3.org/2000/svg" xmlns:xlink="http://www.w3.org/1999/xlink" width="94.6015625" height="47.1953125" style="width:94.6015625px;height:47.1953125px;font-family:Asana-Math, Asana;background:#FFF;"><g><g><g><g><g><g><g transform="matrix(1,0,0,1,2,18.5)"><path transform="matrix(0.017,0,0,-0.017,0,0)" d="M91 666C135 691 168 702 202 704C303 709 366 618 375 455C377 426 375 403 373 353C306 400 270 414 219 411C170 408 130 388 96 347C54 299 33 235 36 173C42 65 129 -16 233 -11C302 -7 359 29 398 92C440 162 466 297 460 413C450 613 327 758 175 750C136 748 102 738 48 715ZM369 318C359 206 351 163 328 111C305 57 263 21 219 19C165 16 128 67 124 152C118 266 180 364 261 368C299 371 331 354 369 318ZM884 646L957 646C1035 646 1071 641 1074 629C1077 621 1079 602 1078 592L1074 528L1102 528L1129 692L1038 691C950 690 882 689 847 689C810 689 746 690 660 691L565 692L547 528L576 528L591 588C596 610 603 626 609 633C615 640 653 646 690 646L802 646L716 125C700 34 698 31 658 28L607 25L603 -3L660 -2C700 -1 729 0 745 0C764 0 795 -1 834 -2L878 -3L881 25L822 28C796 29 786 37 786 58C786 67 787 74 790 93Z" stroke="rgb(0,0,0)" stroke-opacity="1" stroke-width="8" fill="rgb(0,0,0)" fill-opacity="1"></path></g></g></g></g><g><g><g><g transform="matrix(1,0,0,1,4.359375,44.296875)"><path transform="matrix(0.017,0,0,-0.017,0,0)" d="M91 666C135 691 168 702 202 704C303 709 366 618 375 455C377 426 375 403 373 353C306 400 270 414 219 411C170 408 130 388 96 347C54 299 33 235 36 173C42 65 129 -16 233 -11C302 -7 359 29 398 92C440 162 466 297 460 413C450 613 327 758 175 750C136 748 102 738 48 715ZM369 318C359 206 351 163 328 111C305 57 263 21 219 19C165 16 128 67 124 152C118 266 180 364 261 368C299 371 331 354 369 318ZM619 390L563 107C562 99 550 61 550 31C550 6 561 -9 580 -9C615 -9 650 11 728 74L759 99L749 117L704 86C675 66 655 56 644 56C635 56 630 64 630 76C630 102 644 183 673 328L686 390L793 390L804 440C766 436 732 434 694 434C710 528 721 577 739 631L728 646C708 634 681 622 650 610L625 440C581 419 555 408 537 403L535 390Z" stroke="rgb(0,0,0)" stroke-opacity="1" stroke-width="8" fill="rgb(0,0,0)" fill-opacity="1"></path></g></g></g></g><line style="fill:none;stroke-width:1px;stroke:rgb(0, 0, 0);" x1="2" y1="26.6484375" x2="20.7734375" y2="26.6484375"></line></g><g><g transform="matrix(1,0,0,1,22.46875,30.8984375)"><path transform="matrix(0.017,0,0,-0.017,0,0)" d="" stroke="rgb(0,0,0)" stroke-opacity="1" stroke-width="8" fill="rgb(0,0,0)" fill-opacity="1"></path></g></g><g><g transform="matrix(1,0,0,1,31.796875,30.8984375)"><path transform="matrix(0.017,0,0,-0.017,0,0)" d="M604 347L604 406L65 406L65 347ZM604 134L604 193L65 193L65 134Z" stroke="rgb(0,0,0)" stroke-opacity="1" stroke-width="8" fill="rgb(0,0,0)" fill-opacity="1"></path></g></g><g><g transform="matrix(1,0,0,1,48.25,30.8984375)"><path transform="matrix(0.017,0,0,-0.017,0,0)" d="M649 -16C695 -16 762 54 794 84L794 97L781 97C762 79 738 55 711 55C666 55 673 184 673 216C723 278 769 343 807 413C800 428 793 444 785 459L774 459C760 391 705 315 669 257C671 336 694 472 581 473C413 473 276 243 273 93C272 33 292 -16 360 -16C452 -16 546 64 606 131C606 96 597 -15 649 -16ZM533 437C620 437 607 224 606 164C563 113 482 28 411 28C358 28 347 70 348 115C349 202 424 437 533 437Z" stroke="rgb(0,0,0)" stroke-opacity="1" stroke-width="8" fill="rgb(0,0,0)" fill-opacity="1"></path></g></g><g><g transform="matrix(1,0,0,1,62.5859375,30.8984375)"><path transform="matrix(0.017,0,0,-0.017,0,0)" d="M662 687L655 697C549 693 443 693 336 693C235 693 134 694 33 697L27 687C88 577 136 455 186 339C235 227 288 113 327 -4L352 -4C395 103 597 565 662 687ZM584 656C518 478 447 304 371 129L364 129C289 302 217 478 152 656Z" stroke="rgb(0,0,0)" stroke-opacity="1" stroke-width="8" fill="rgb(0,0,0)" fill-opacity="1"></path></g></g><g><g><g><g><g transform="matrix(1,0,0,1,75.265625,24.7046875)"><path transform="matrix(0.0119,0,0,-0.0119,0,0)" d="M16 23L16 -3C203 -3 203 0 239 0C275 0 275 -3 468 -3L468 82C353 77 307 81 122 77L304 270C401 373 431 428 431 503C431 618 353 689 226 689C154 689 105 669 56 619L39 483L68 483L81 529C97 587 133 612 200 612C286 612 341 558 341 473C341 398 299 324 186 204Z" stroke="rgb(0,0,0)" stroke-opacity="1" stroke-width="8" fill="rgb(0,0,0)" fill-opacity="1"></path></g></g></g></g></g><g><g transform="matrix(1,0,0,1,82.2265625,30.8984375)"><path transform="matrix(0.017,0,0,-0.017,0,0)" d="M390 646L463 646C541 646 577 641 580 629C583 621 585 602 584 592L580 528L608 528L635 692L544 691C456 690 388 689 353 689C316 689 252 690 166 691L71 692L53 528L82 528L97 588C102 610 109 626 115 633C121 640 159 646 196 646L308 646L222 125C206 34 204 31 164 28L113 25L109 -3L166 -2C206 -1 235 0 251 0C270 0 301 -1 340 -2L384 -3L387 25L328 28C302 29 292 37 292 58C292 67 293 74 296 93Z" stroke="rgb(0,0,0)" stroke-opacity="1" stroke-width="8" fill="rgb(0,0,0)" fill-opacity="1"></path></g></g></g></g></svg>